<svg width="228" height="56" viewBox="0 0 228 56" fill="none" xmlns="http://www.w3.org/2000/svg">
  <path d="M15.8843 40L25.3606 15.6H31.488L25.1266 40H15.8843Z" fill="#EF3E3A"/>
  <path d="M26.7026 40L36.9985 15.6H43.1259L36.5315 40H26.7026Z" fill="#EF3E3A"/>
  <path d="M53.4414 40V15.6H58.748V25.3704H69.0144V15.6H74.321V40H69.0144V29.9704H58.748V40H53.4414Z" fill="#27459A"/>
  <path d="M79.8115 40V22.8148H84.8848V25.2815C86.0144 23.437 88.0792 22.4444 90.3789 22.4444C95.099 22.4444 98.2536 25.7259 98.2536 30.6222V40H93.1506V31.3185C93.1506 28.7296 91.6089 27.1444 89.2214 27.1444C86.8339 27.1444 84.9144 28.7926 84.9144 31.4815V40H79.8115Z" fill="#27459A"/>
  <path d="M102.128 31.4074C102.128 26.1407 106.082 22.4444 111.418 22.4444C116.913 22.4444 120.659 26.3037 120.659 31.8296C120.659 32.4741 120.629 32.8889 120.57 33.3704H107.171C107.553 35.7259 109.183 37.0815 111.629 37.0815C113.402 37.0815 114.766 36.3926 115.659 35.037L120.007 36.437C118.583 39.0222 115.666 40.3704 111.599 40.3704C105.874 40.3704 102.128 36.5926 102.128 31.4074ZM107.29 30.2963H115.6C115.3 28.2963 113.935 26.9704 111.418 26.9704C109.088 26.9704 107.494 28.2815 107.29 30.2963Z" fill="#27459A"/>
  <path d="M131.735 40V22.8148H136.808V40H131.735ZM131.499 19.9259V15.4519H137.014V19.9259H131.499Z" fill="#27459A"/>
  <path d="M142.352 40V22.8148H147.425V25.3704C148.555 23.4667 150.648 22.4444 152.977 22.4444C157.727 22.4444 160.911 25.7259 160.911 30.6222V40H155.808V31.3185C155.808 28.7296 154.237 27.1444 151.82 27.1444C149.403 27.1444 147.455 28.7926 147.455 31.4815V40H142.352Z" fill="#27459A"/>
  <path d="M165.053 40V15.6H170.156V29.2741L176.577 22.8148H182.852L175.667 30.0222L183.205 40H177.137L172.274 33.5926L170.156 35.7333V40H165.053Z" fill="#27459A"/>
</svg>
